# xmcd CD database file
#
# Track frame offsets:
#	182
#	9587
#	25700
#	38610
#	50520
#	61210
#	71475
#	86907
#	99440
#	114055
#	125475
#	139917
#	154455
#	164740
#	179377
#	190620
#
# Disc length: 2699 seconds
#
# Revision: 1
# Processed by: cddbd v1.5.1PL2 Copyright (c) Steve Scherf et al.
# Submitted via: CDex 1.50
#
DISCID=d30a8910
DTITLE=Various Artist - Country greats
DYEAR=1995
DGENRE=Country
TTITLE0=George Jones - The race is on
TTITLE1=Willie Nelson - You were always on my mind
TTITLE2=Faron Young - Four in the morning
TTITLE3=Conway Twitty - Lying here with Lynda on my mind
TTITLE4=Carl Perkins - What am I living for
TTITLE5=Don Gibson - Sea of heartbreak
TTITLE6=Kenny Rogers - For the good times
TTITLE7=Johnny Paycheck - Take this job and shove it
TTITLE8=Johnny Paycheck - Green green grass of home
TTITLE9=Faron Young - Your cheatin' heart
TTITLE10=George Jones - Good year for the roses
TTITLE11=_Willie Nelson - Will you remember mine
TTITLE12=Carl Perkins - Daddy sang base
TTITLE13=Don Gibson - I can't stop loving you
TTITLE14=Conway Twitty - Hello Darlin'
TTITLE15=Kenny Rogers - Me and Bobby McGee
EXTD=YEAR: 1995
EXTT0=
EXTT1=
EXTT2=
EXTT3=
EXTT4=
EXTT5=
EXTT6=
EXTT7=
EXTT8=
EXTT9=
EXTT10=
EXTT11=
EXTT12=
EXTT13=
EXTT14=
EXTT15=
PLAYORDER=
